HIERARCHY
ROOT root
{
	OFFSET	0	13.1	24.9
	CHANNELS 6  Xposition Yposition Zposition Xrotation Yrotation Zrotation
	JOINT spine_1
	{
		OFFSET	0	9.99999	0
		CHANNELS 3  Xrotation Yrotation Zrotation
		JOINT spine_2
		{
			OFFSET	0	112	-10
			CHANNELS 3  Xrotation Yrotation Zrotation
			JOINT spine_3
			{
				OFFSET	0	206.5	19.3
				CHANNELS 3  Xrotation Yrotation Zrotation
				JOINT spine_4
				{
					OFFSET	0	110.4	14.6
					CHANNELS 3  Xrotation Yrotation Zrotation
					JOINT neck_1
					{
						OFFSET	0	71.8	-50.3
						CHANNELS 3  Xrotation Yrotation Zrotation
						JOINT neck_2
						{
							OFFSET	0	86.2	-25.8
							CHANNELS 3  Xrotation Yrotation Zrotation
							JOINT head_ee
							{
								OFFSET	0	179.8	-8.7
								CHANNELS 3  Xrotation Yrotation Zrotation
								End Site
								{
									OFFSET	1	0	0
								}
							}
						}
					}
					JOINT left_clavicle
					{
						OFFSET	-43.2	22.4	-70.8
						CHANNELS 3  Xrotation Yrotation Zrotation
						JOINT left_shoulder
						{
							OFFSET	-93.9	-5.79999	48.7
							CHANNELS 3  Xrotation Yrotation Zrotation
							JOINT left_elbow
							{
								OFFSET	-291.4	-30.8	15.2
								CHANNELS 3  Xrotation Yrotation Zrotation
								JOINT left_lowarm_twist
								{
									OFFSET	-110.7	-3.89999	13.6
									CHANNELS 3  Xrotation Yrotation Zrotation
									JOINT left_hand
									{
										OFFSET	-110.7	-3.89999	13.6
										CHANNELS 3  Xrotation Yrotation Zrotation
										JOINT left_ee
										{
											OFFSET	-80.8	-5.10001	12.1
											CHANNELS 3  Xrotation Yrotation Zrotation
											End Site
											{
												OFFSET	1	0	0
											}
										}
									}
								}
							}
						}
					}
					JOINT right_clavicle
					{
						OFFSET	43.2	22.4	-70.8
						CHANNELS 3  Xrotation Yrotation Zrotation
						JOINT right_shoulder
						{
							OFFSET	93.9	-5.79999	48.7
							CHANNELS 3  Xrotation Yrotation Zrotation
							JOINT right_elbow
							{
								OFFSET	291.4	-30.8	15.2
								CHANNELS 3  Xrotation Yrotation Zrotation
								JOINT right_lowarm_twist
								{
									OFFSET	110.7	-3.89999	13.6
									CHANNELS 3  Xrotation Yrotation Zrotation
									JOINT right_hand
									{
										OFFSET	110.7	-3.89999	13.6
										CHANNELS 3  Xrotation Yrotation Zrotation
										JOINT right_ee
										{
											OFFSET	80.8	-5.10001	12.1
											CHANNELS 3  Xrotation Yrotation Zrotation
											End Site
											{
												OFFSET	1	0	0
											}
										}
									}
								}
							}
						}
					}
				}
			}
		}
	}
	JOINT left_hip
	{
		OFFSET	-82.8	-127.5	0.300001
		CHANNELS 3  Xrotation Yrotation Zrotation
		JOINT left_knee
		{
			OFFSET	-28.2	-396.7	2.2
			CHANNELS 3  Xrotation Yrotation Zrotation
			JOINT left_ankle
			{
				OFFSET	-11.7	-411.3	35.4
				CHANNELS 3  Xrotation Yrotation Zrotation
				JOINT left_toes
				{
					OFFSET	0	-60	-88.6
					CHANNELS 3  Xrotation Yrotation Zrotation
					JOINT left_foot_ee
					{
						OFFSET	-22.5	-16.5	-42.2
						CHANNELS 3  Xrotation Yrotation Zrotation
						End Site
						{
							OFFSET	1	0	0
						}
					}
				}
			}
		}
	}
	JOINT right_hip
	{
		OFFSET	82.8	-127.5	0.300001
		CHANNELS 3  Xrotation Yrotation Zrotation
		JOINT right_knee
		{
			OFFSET	28.2	-396.7	2.2
			CHANNELS 3  Xrotation Yrotation Zrotation
			JOINT right_ankle
			{
				OFFSET	11.7	-411.3	35.4
				CHANNELS 3  Xrotation Yrotation Zrotation
				JOINT right_toes
				{
					OFFSET	0	-60	-88.6
					CHANNELS 3  Xrotation Yrotation Zrotation
					JOINT right_foot_ee
					{
						OFFSET	22.5	-16.5	-42.2
						CHANNELS 3  Xrotation Yrotation Zrotation
						End Site
						{
							OFFSET	1	0	0
						}
					}
				}
			}
		}
	}
}
MOTION
Frames: 10
Frame Time: 0.02
1372.05 701.618 -1475.22 -10.7748290944 14.3786788593 3.49979150361 3.09164 0.0598211 0.496391 3.09177 0.0281136 0.499192 3.09197 -0.0506776 0.497408 3.09163 0.0285136 0.499169 -5.08048 6.85682 -6.83305 -4.83454 17.7204 -5.80771 -0.0 0.0 -0.0 3.31578 12.2924 6.99601 -6.51237 -15.1588 54.0556 2.30232 -48.7486 1.04325 3.89377 0.120825 -0.482581 0.307375 0.060063 2.07806 -0.0 0.0 -0.0 9.95721 14.4745 -19.6199 -25.7242 11.1882 -64.2666 0.353377 9.92938 -0.0306972 45.1831 0.64594 5.58823 0.372364 -10.1714 -6.60625 0.0 0.0 0.0 -1.05175 19.9837 4.58614 -16.4374 0.321044 2.49342 38.6904 -8.18759 -4.87255 -2.76118 0.0 0.0 -0.0 0.0 -0.0 42.0392 21.4907 -11.1106 -2.58287 -0.0976963 -0.384313 20.5241 -20.5637 2.87446 27.0081 -0.0 -0.0 0.0 0.0 0.0 
1358.02800425 700.236 -1500.32103653 -10.1322343511 15.9963332991 3.46744317132 3.1488 0.0289294 0.427567 3.1489 0.00166381 0.428541 3.14888 -0.0652767 0.423544 3.14863 0.0024327 0.428537 -5.27273 6.77595 -6.66776 -5.04476 17.4434 -5.61779 -0.0 0.0 -0.0 3.27891 12.7982 6.95267 -8.39793 -14.8354 54.956 2.20687 -47.5436 0.972146 3.34404 0.105761 -0.413976 0.371222 -0.258907 2.37216 -0.0 0.0 -0.0 10.1784 15.4969 -20.0681 -25.1591 11.374 -64.3982 0.376534 10.5658 -0.0348168 45.0955 0.640483 5.57844 0.370418 -11.4571 -7.0964 0.0 0.0 0.0 -1.31913 19.9559 3.8145 -19.6055 0.300124 2.97899 38.3909 -7.27644 -4.82822 -2.21151 0.0 0.0 -0.0 0.0 -0.0 40.7835 21.5206 -10.5333 -5.67198 -0.191628 -0.849034 21.4433 -20.3813 2.98894 27.301 -0.0 -0.0 0.0 0.0 0.0 
1343.96006221 707.031 -1532.80661472 -9.91521973123 16.4811686344 2.63627695367 3.12038 0.146334 0.649489 3.12061 0.104709 0.657484 3.12174 0.000442278 0.665769 3.12113 0.10558 0.657344 -5.58201 6.73423 -6.11308 -5.39394 16.9474 -5.00319 -0.0 0.0 -0.0 2.80104 13.8379 6.20505 -11.1411 -14.1217 56.0864 2.0165 -44.9638 0.834588 2.96152 0.0948903 -0.366323 0.454541 -0.110392 2.99113 -0.0 0.0 -0.0 10.6317 16.0675 -21.0558 -24.3183 11.7005 -64.4704 0.402762 11.2835 -0.0397876 45.1959 0.646741 5.58966 0.470235 -10.7548 -7.46434 0.0 0.0 0.0 -0.860955 18.2386 3.05314 -20.6271 0.287656 3.13525 37.328 -6.78389 -4.72263 -2.01573 0.0 0.0 -0.0 0.0 -0.0 39.2471 21.1097 -10.742 -5.74427 -0.193526 -0.859967 19.7155 -21.0045 2.77589 27.5797 -0.0 -0.0 0.0 0.0 0.0 
1344.70727143 707.031 -1533.16512917 -9.87841425848 15.7510787881 2.50368798693 3.12038 0.146334 0.649489 3.12061 0.104709 0.657484 3.12174 0.000442278 0.665769 3.12113 0.10558 0.657344 -5.58201 6.73423 -6.11308 -5.39394 16.9474 -5.00319 -0.0 0.0 -0.0 2.80104 13.8379 6.20505 -11.1411 -14.1217 56.0864 2.0165 -44.9638 0.834588 2.96152 0.0948903 -0.366323 0.454541 -0.110392 2.99113 -0.0 0.0 -0.0 10.6317 16.0675 -21.0558 -24.3183 11.7005 -64.4704 0.402762 11.2835 -0.0397876 45.1959 0.646741 5.58966 0.470235 -10.7548 -7.46434 0.0 0.0 0.0 -0.860955 18.2386 3.05314 -20.6271 0.287656 3.13525 37.328 -6.78389 -4.72263 -2.01573 0.0 0.0 -0.0 0.0 -0.0 39.2471 21.1097 -10.742 -5.74427 -0.193526 -0.859967 19.7155 -21.0045 2.77589 27.5797 -0.0 -0.0 0.0 0.0 0.0 
1345.4919976 707.031 -1533.52896422 -9.84200357163 14.9890118994 2.36631924685 3.12038 0.146334 0.649489 3.12061 0.104709 0.657484 3.12174 0.000442278 0.665769 3.12113 0.10558 0.657344 -5.58201 6.73423 -6.11308 -5.39394 16.9474 -5.00319 -0.0 0.0 -0.0 2.80104 13.8379 6.20505 -11.1411 -14.1217 56.0864 2.0165 -44.9638 0.834588 2.96152 0.0948903 -0.366323 0.454541 -0.110392 2.99113 -0.0 0.0 -0.0 10.6317 16.0675 -21.0558 -24.3183 11.7005 -64.4704 0.402762 11.2835 -0.0397876 45.1959 0.646741 5.58966 0.470235 -10.7548 -7.46434 0.0 0.0 0.0 -0.860955 18.2386 3.05314 -20.6271 0.287656 3.13525 37.328 -6.78389 -4.72263 -2.01573 0.0 0.0 -0.0 0.0 -0.0 39.2471 21.1097 -10.742 -5.74427 -0.193526 -0.859967 19.7155 -21.0045 2.77589 27.5797 -0.0 -0.0 0.0 0.0 0.0 
1332.06294597 708.098 -1561.55345823 -9.38485874551 17.0936681637 2.42726883701 3.06494 0.103803 0.719576 3.06523 0.057805 0.724723 3.06587 -0.057125 0.724777 3.06514 0.0580538 0.724703 -5.77771 6.97812 -7.23637 -5.53656 18.2201 -6.07834 -0.0 0.0 -0.0 2.59267 14.8254 5.91317 -12.9316 -13.3638 57.3484 1.86627 -42.7489 0.730477 2.55607 0.0830209 -0.315893 0.453331 0.127275 3.08147 -0.0 0.0 -0.0 10.6878 14.2313 -21.2566 -23.9041 12.1081 -64.5257 0.418102 11.7016 -0.042844 45.0903 0.640162 5.57786 0.526425 -10.1439 -7.58981 0.0 0.0 0.0 -0.315219 17.035 2.18357 -22.6337 0.255067 3.44141 36.5942 -6.52556 -4.64993 -1.84493 0.0 0.0 -0.0 0.0 -0.0 37.3139 21.2819 -10.3561 -8.17001 -0.249172 -1.22803 17.0754 -22.1924 2.44286 27.869 -0.0 -0.0 0.0 0.0 0.0 
1320.72167923 708.668 -1582.45476156 -9.24102900655 17.7260096812 2.6554062247 3.24855 0.154809 0.642272 3.24877 0.113626 0.65082 3.24998 0.0117722 0.66056 3.24939 0.115945 0.650411 -5.716 6.51075 -7.12732 -5.48524 17.2815 -6.06122 -0.0 0.0 -0.0 2.46203 13.9868 5.65781 -14.4855 -12.8888 58.3621 1.58496 -38.1342 0.547855 2.21769 0.0728417 -0.273868 0.474784 0.969497 3.57263 -0.0 0.0 -0.0 11.1414 15.6903 -22.2204 -23.0041 12.2406 -64.9888 0.440278 12.3038 -0.0474558 45.6496 0.675255 5.64023 0.579253 -8.37349 -7.24267 0.0 0.0 0.0 0.154029 14.5094 2.96316 -23.1475 0.244999 3.51962 36.6986 -5.98468 -4.65074 -1.72514 0.0 0.0 -0.0 0.0 -0.0 36.6931 20.7516 -11.2834 -10.3797 -0.286259 -1.56506 13.755 -24.9591 2.01993 27.141 -0.0 -0.0 0.0 0.0 0.0 
1324.27008708 708.668 -1584.08216295 -9.15025794143 15.8687093707 2.34134807935 3.24855 0.154809 0.642272 3.24877 0.113626 0.65082 3.24998 0.0117722 0.66056 3.24939 0.115945 0.650411 -5.716 6.51075 -7.12732 -5.48524 17.2815 -6.06122 -0.0 0.0 -0.0 2.46203 13.9868 5.65781 -14.4855 -12.8888 58.3621 1.58496 -38.1342 0.547855 2.21769 0.0728417 -0.273868 0.474784 0.969497 3.57263 -0.0 0.0 -0.0 11.1414 15.6903 -22.2204 -23.0041 12.2406 -64.9888 0.440278 12.3038 -0.0474558 45.6496 0.675255 5.64023 0.579253 -8.37349 -7.24267 0.0 0.0 0.0 0.154029 14.5094 2.96316 -23.1475 0.244999 3.51962 36.6986 -5.98468 -4.65074 -1.72514 0.0 0.0 -0.0 0.0 -0.0 36.6931 20.7516 -11.2834 -10.3797 -0.286259 -1.56506 13.755 -24.9591 2.01993 27.141 -0.0 -0.0 0.0 0.0 0.0 
1311.93429266 713.097 -1605.90074928 -8.68217833772 15.80306415 2.14813541583 3.26944 0.305308 0.966748 3.26992 0.243176 0.984214 3.27394 0.088729 1.00992 3.2726 0.247105 0.983235 -6.46583 6.45957 -7.11836 -6.26478 17.1493 -5.93403 -0.0 0.0 -0.0 2.21646 13.4871 5.22669 -16.0872 -12.4913 59.3683 1.43434 -35.3928 0.457677 1.92866 0.0639504 -0.238021 0.455552 1.62081 3.71243 -0.0 0.0 -0.0 11.4193 15.6749 -22.85 -21.0814 13.1362 -64.3617 0.496721 13.8238 -0.060215 45.6525 0.675442 5.64056 0.638014 -8.4764 -7.66612 0.0 0.0 0.0 1.45648 13.5467 2.98184 -24.4674 0.215923 3.72008 36.6381 -6.75947 -4.65806 -1.72712 0.0 0.0 -0.0 0.0 -0.0 34.195 20.5351 -11.0062 -10.789 -0.291699 -1.62762 11.3013 -25.4364 1.67772 26.7561 -0.0 -0.0 0.0 0.0 0.0 
1317.72235571 713.097 -1608.41107915 -8.58417316387 13.3183516937 1.75839964412 3.26944 0.305308 0.966748 3.26992 0.243176 0.984214 3.27394 0.088729 1.00992 3.2726 0.247105 0.983235 -6.46583 6.45957 -7.11836 -6.26478 17.1493 -5.93403 -0.0 0.0 -0.0 2.21646 13.4871 5.22669 -16.0872 -12.4913 59.3683 1.43434 -35.3928 0.457677 1.92866 0.0639504 -0.238021 0.455552 1.62081 3.71243 -0.0 0.0 -0.0 11.4193 15.6749 -22.85 -21.0814 13.1362 -64.3617 0.496721 13.8238 -0.060215 45.6525 0.675442 5.64056 0.638014 -8.4764 -7.66612 0.0 0.0 0.0 1.45648 13.5467 2.98184 -24.4674 0.215923 3.72008 36.6381 -6.75947 -4.65806 -1.72712 0.0 0.0 -0.0 0.0 -0.0 34.195 20.5351 -11.0062 -10.789 -0.291699 -1.62762 11.3013 -25.4364 1.67772 26.7561 -0.0 -0.0 0.0 0.0 0.0 
